<svg width="259" height="32" viewBox="0 0 259 32" fill="none" xmlns="http://www.w3.org/2000/svg">
<path d="M21.68 0.984998H4.58L0.89 31H8.495L9.935 19.3H18.575L19.385 12.685H10.745L11.375 7.6H20.87L21.68 0.984998ZM51.8585 0.984998H44.2535L42.1835 18.085C41.5985 22.81 40.1135 24.385 36.3335 24.385C33.0035 24.385 31.3385 22.81 31.3385 19.66C31.3385 18.76 31.3835 18.04 31.4735 17.185L33.4535 0.984998H25.8935L23.9135 17.185C23.6885 18.895 23.5535 20.515 23.5535 21.325C23.5535 27.715 28.2785 31.585 36.0635 31.585C40.4735 31.585 44.1635 30.37 46.3235 28.21C48.2585 26.32 49.0235 24.025 49.7435 18.355L51.8585 0.984998ZM68.5443 7.6H74.8443L75.6543 0.984998H55.3143L54.5043 7.6H60.9393L58.0593 31H65.6643L68.5443 7.6ZM105.032 0.984998H97.4273L95.3573 18.085C94.7723 22.81 93.2873 24.385 89.5073 24.385C86.1773 24.385 84.5123 22.81 84.5123 19.66C84.5123 18.76 84.5573 18.04 84.6473 17.185L86.6273 0.984998H79.0673L77.0873 17.185C76.8623 18.895 76.7273 20.515 76.7273 21.325C76.7273 27.715 81.4523 31.585 89.2373 31.585C93.6473 31.585 97.3373 30.37 99.4973 28.21C101.432 26.32 102.197 24.025 102.917 18.355L105.032 0.984998ZM125.318 19.345C129.638 17.815 131.708 14.89 131.708 10.3C131.708 3.955 128.333 0.984998 121.088 0.984998H111.323L107.633 31H115.238L116.678 19.075L123.878 31H132.698L125.318 19.345ZM118.163 6.97H119.603C122.798 6.97 123.923 7.87 123.923 10.48C123.923 13.36 122.213 14.71 118.568 14.71H117.218L118.163 6.97ZM156.005 0.984998H139.58L135.89 31H152.675L153.485 24.385H144.305L144.935 19.39H153.485L154.295 12.775H145.745L146.375 7.6H155.195L156.005 0.984998ZM173.978 14.305L173.258 20.29H180.188C179.558 23.125 176.993 24.97 173.708 24.97C169.073 24.97 165.788 21.505 165.788 16.6C165.788 11.11 169.433 6.835 174.113 6.835C177.488 6.835 179.738 8.365 181.268 11.74L187.838 9.175C185.363 3.325 180.908 0.4 174.383 0.4C164.888 0.4 158.003 7.33 158.003 16.87C158.003 25.51 164.168 31.585 172.853 31.585C179.468 31.585 184.778 28.21 186.938 22.63C187.883 20.11 188.333 17.59 188.378 14.305H173.978ZM208.941 0.354998C198.951 0.354998 191.931 6.97 191.931 16.375C191.931 25.465 198.546 31.585 208.311 31.585C217.986 31.585 224.601 24.88 224.601 15.115C224.601 6.34 218.256 0.354998 208.941 0.354998ZM208.536 7.555C213.531 7.555 216.816 10.885 216.816 15.925C216.816 20.875 213.216 24.385 208.131 24.385C203.091 24.385 199.716 21.055 199.716 16.105C199.716 11.2 203.451 7.555 208.536 7.555ZM258.607 0.984998H250.102L242.407 16.06C241.687 17.41 241.192 18.58 240.697 20.155C240.472 17.725 240.337 16.915 239.797 14.665L236.332 0.984998H228.232L236.107 31H242.497L258.607 0.984998Z" fill="white"/>
</svg>
